<?xml version="1.0" standalone="no"?>
<!DOCTYPE svg PUBLIC "-//W3C//DTD SVG 20010904//EN"
 "http://www.w3.org/TR/2001/REC-SVG-20010904/DTD/svg10.dtd">
<svg version="1.0" xmlns="http://www.w3.org/2000/svg"
 width="512.000000pt" height="512.000000pt" viewBox="0 0 512.000000 512.000000"
 preserveAspectRatio="xMidYMid meet">
<metadata>
Created by potrace 1.14, written by Peter Selinger 2001-2017
</metadata>
<g transform="translate(0.000000,512.000000) scale(0.100000,-0.100000)"
fill="#000000" stroke="none">
<path d="M2420 4802 c0 -4 -15 -8 -32 -8 -39 -1 -148 -12 -198 -19 -53 -9
-235 -49 -540 -120 -151 -35 -286 -66 -300 -69 -14 -3 -36 -8 -50 -11 -14 -3
-36 -8 -50 -10 -14 -3 -56 -12 -95 -21 -140 -31 -178 -38 -193 -36 -6 2 -12
-1 -12 -7 0 -5 -10 -9 -22 -9 -24 0 -69 -6 -125 -16 -18 -3 -48 -8 -65 -11
-18 -3 -46 -8 -63 -11 -150 -26 -250 -76 -347 -176 -57 -58 -144 -210 -132
-229 3 -5 0 -9 -5 -9 -6 0 -10 -3 -9 -7 1 -7 -4 -37 -18 -95 -1 -5 -2 -9 -4
-10 -2 -3 -6 -39 -14 -158 -4 -47 -9 -97 -11 -112 -3 -16 -1 -28 3 -28 4 0 8
-33 9 -73 7 -335 10 -414 17 -425 4 -7 3 -12 -3 -12 -10 0 -9 -19 2 -37 5 -7
4 -13 0 -13 -5 0 -7 -15 -5 -32 9 -84 12 -213 12 -598 0 -457 -2 -535 -13
-546 -4 -4 -2 -13 4 -21 6 -7 7 -13 3 -13 -12 0 -11 -180 0 -199 7 -10 5 -12
-4 -6 -9 5 -11 4 -6 -4 4 -6 9 -24 12 -39 9 -57 14 -88 20 -112 3 -14 6 -31 6
-37 1 -7 5 -13 10 -13 4 0 8 -8 8 -19 0 -22 56 -133 82 -160 10 -11 18 -24 18
-29 0 -15 147 -149 179 -163 16 -7 27 -17 25 -21 -3 -4 1 -8 8 -8 8 0 40 -13
73 -30 33 -16 66 -30 73 -30 7 0 20 -4 30 -10 9 -5 125 -50 257 -100 132 -50
249 -94 260 -99 62 -28 241 -95 248 -93 4 1 7 -3 7 -8 0 -6 7 -10 15 -10 8 0
23 -4 33 -9 41 -21 69 -32 84 -35 9 -1 24 -8 34 -16 9 -8 18 -14 18 -12 1 2
15 -2 31 -9 17 -7 33 -12 38 -11 4 1 7 -3 7 -8 0 -5 3 -9 8 -8 9 2 34 -9 167
-72 175 -82 271 -119 354 -135 9 -2 16 -4 16 -5 0 -2 4 -2 87 -15 44 -7 49 -6
73 24 15 17 31 29 35 26 5 -3 11 -1 15 5 3 5 0 10 -7 10 -10 1 -9 4 2 13 8 7
16 23 18 37 6 60 6 280 0 280 -4 0 -3 12 2 26 12 30 12 37 3 31 -5 -3 -9 10
-9 29 -1 19 3 34 9 34 5 0 4 6 -3 15 -6 8 -9 19 -6 24 9 14 33 3 33 -14 0 -8
-5 -11 -10 -8 -6 4 -7 1 -1 -8 4 -8 9 -20 10 -27 2 -11 -1 -11 -14 0 -16 12
-16 11 -1 -7 18 -22 21 -55 5 -55 -5 0 -1 -7 10 -15 15 -12 15 -14 2 -9 -14 5
-16 0 -13 -23 2 -17 8 -27 16 -25 9 2 8 -2 -3 -15 -24 -26 -24 -28 -10 -46 11
-13 17 -14 32 -4 14 8 16 13 7 19 -7 4 3 6 21 3 30 -3 37 3 33 28 0 4 3 7 8 7
4 0 8 -20 8 -45 0 -24 -4 -42 -9 -39 -4 3 -6 10 -3 15 3 5 0 7 -7 6 -7 -2 -10
-2 -5 0 4 3 4 9 1 14 -3 6 -12 2 -21 -8 -8 -10 -11 -12 -8 -5 6 11 3 12 -13 3
-12 -6 -24 -16 -27 -21 -4 -6 -11 -8 -16 -5 -5 4 -9 1 -9 -4 0 -6 5 -11 12
-11 9 0 9 -3 0 -12 -7 -7 -12 -17 -12 -23 0 -5 5 -3 10 5 7 12 9 10 7 -8 0
-12 -6 -22 -12 -22 -5 -1 1 -7 15 -16 22 -13 22 -14 3 -9 -19 5 -21 3 -18 -22
2 -15 4 -28 5 -28 1 0 3 -12 4 -27 2 -16 -1 -25 -7 -21 -6 4 -7 1 -2 -8 7 -11
5 -11 -10 1 -17 13 -18 13 -10 0 5 -8 11 -24 12 -35 3 -19 2 -19 -11 -2 -8 10
-17 14 -20 8 -3 -5 -3 -11 1 -14 5 -2 2 -2 -5 0 -7 1 -10 -1 -7 -7 3 -5 -4 -7
-15 -5 -21 4 -28 -9 -10 -20 6 -3 10 -2 10 2 0 5 9 9 20 10 11 1 19 -1 16 -5
-2 -4 20 -7 50 -8 42 0 51 3 42 13 -6 8 -7 13 0 13 5 0 15 -6 21 -14 14 -16
57 -15 54 2 -2 7 2 12 7 12 6 0 8 12 4 28 -3 15 -6 32 -6 39 -1 6 -7 9 -15 6
-7 -3 -13 1 -13 8 0 7 -3 9 -7 5 -5 -4 -8 -18 -8 -29 0 -13 -6 -22 -15 -22
-10 0 -15 12 -16 43 0 23 1 40 4 37 3 -3 11 0 19 6 11 10 11 15 1 28 -12 14
-11 14 5 2 17 -13 17 -15 0 -35 l-18 -21 23 19 c20 17 21 21 7 36 -17 19 -29
64 -15 55 5 -3 7 4 5 15 -2 11 0 20 6 20 13 0 11 -34 -3 -49 -11 -11 -10 -13
4 -8 12 4 16 1 13 -14 -2 -10 0 -19 6 -19 5 0 9 -7 9 -15 0 -8 -5 -15 -11 -15
-5 0 -7 -5 -4 -10 4 -6 11 -8 16 -5 5 4 9 1 9 -5 0 -7 10 -26 22 -43 13 -18
23 -35 23 -38 0 -11 35 -40 43 -35 5 3 24 8 43 11 19 3 50 10 69 15 19 5 38 8
41 7 3 -1 12 3 20 9 12 10 376 132 411 138 15 2 156 45 178 53 8 3 21 7 29 9
8 1 37 10 65 19 28 10 58 19 66 20 8 2 30 9 49 14 19 6 37 9 39 6 3 -3 10 -1
16 4 11 9 78 29 125 38 13 2 32 8 43 14 10 5 23 7 28 4 6 -3 10 -2 10 3 0 5 6
9 13 9 6 0 89 21 182 46 94 25 202 53 240 62 217 52 339 100 404 158 36 33 81
98 75 108 -3 5 -1 9 4 9 6 0 13 12 17 28 5 15 10 34 12 42 3 8 4 23 4 32 0 10
4 18 9 18 5 0 8 81 8 180 -1 99 -4 180 -7 180 -12 0 -8 744 4 752 6 5 6 8 -2
8 -8 0 -9 9 -3 29 5 20 5 31 -3 34 -6 2 -7 9 -2 17 5 8 10 98 12 200 1 102 3
185 3 185 1 0 2 73 3 162 1 90 4 163 7 163 8 0 5 44 -3 57 -4 7 -4 14 0 16 8
5 14 159 17 377 1 47 -3 88 -9 92 -6 5 -6 8 2 8 7 0 10 10 6 28 -3 15 -6 41
-8 57 -1 17 -4 30 -5 30 -1 0 -4 11 -6 25 -6 43 -9 55 -17 68 -5 6 -6 12 -3
12 8 0 -42 108 -67 143 -29 42 -125 137 -138 137 -6 0 -18 7 -26 16 -13 13
-18 13 -25 2 -6 -10 -12 -9 -26 8 -9 11 -35 27 -57 36 -50 20 -329 98 -350 98
-8 0 -15 5 -15 11 0 5 -4 8 -10 4 -5 -3 -25 1 -45 9 -19 8 -35 13 -35 11 0 -3
-12 0 -27 6 -16 6 -35 12 -44 14 -9 2 -39 11 -65 20 -27 9 -58 19 -69 21 -24
6 -35 9 -55 16 -32 12 -156 48 -170 51 -8 1 -18 5 -21 9 -3 5 -17 9 -32 10
-15 1 -27 7 -27 12 0 5 -3 6 -7 3 -3 -4 -12 -2 -20 4 -7 6 -13 9 -13 5 0 -3
-22 3 -50 14 -27 11 -50 17 -50 15 0 -3 -10 0 -22 6 -13 7 -32 14 -43 15 -11
2 -128 40 -260 84 -290 98 -330 108 -490 123 -17 2 -36 7 -43 11 -7 4 -12 3
-12 -1 0 -5 -26 -6 -58 -3 -33 3 -70 3 -83 -1 -13 -3 -32 -2 -41 3 -10 5 -18
5 -18 0z m67 -2677 c0 -8 -4 -12 -9 -9 -5 3 -6 10 -3 15 9 13 12 11 12 -6z m0
-74 c0 -11 -5 -18 -9 -15 -4 3 -5 11 -1 19 7 21 12 19 10 -4z m3 -131 c0 -5
-2 -10 -4 -10 -3 0 -8 5 -11 10 -3 6 -1 10 4 10 6 0 11 -4 11 -10z m162 -42
c-6 -6 -22 -12 -35 -12 -14 -1 -32 -7 -40 -14 -9 -7 -18 -9 -21 -4 -5 8 -25 9
-58 3 -5 0 -8 -6 -8 -12 0 -5 4 -8 9 -4 5 3 12 1 16 -5 4 -6 11 -7 17 -4 7 5
8 2 3 -7 -8 -12 -6 -12 8 0 31 25 32 1 2 -27 l-29 -27 24 30 24 30 -24 -22
c-22 -21 -38 -89 -17 -76 5 3 1 -6 -8 -21 -14 -21 -15 -29 -5 -41 16 -19 24
-12 26 20 0 15 -3 22 -10 18 -6 -4 -5 0 1 9 7 8 9 19 5 23 -4 5 0 4 8 0 13 -8
13 -7 1 8 -12 16 -11 21 14 47 17 18 24 33 19 42 -4 7 -4 10 1 6 4 -4 14 -3
22 3 8 8 13 8 13 1 0 -6 -6 -12 -12 -15 -10 -3 -10 -8 1 -18 9 -10 12 -10 7
-1 -5 8 -2 11 6 10 7 -2 12 4 10 14 -1 9 2 20 8 23 18 11 23 -2 10 -26 -11
-20 -10 -21 6 -15 14 5 12 1 -6 -16 -14 -13 -21 -20 -16 -15 17 12 25 8 23
-13 -1 -11 -5 -20 -10 -20 -5 0 -6 8 -2 18 5 14 4 15 -7 4 -11 -11 -10 -16 6
-28 14 -10 16 -14 5 -14 -10 0 -11 -2 -2 -8 9 -5 6 -12 -10 -21 -21 -13 -21
-13 -7 5 11 15 11 16 0 7 -8 -7 -18 -13 -24 -13 -5 0 -1 7 10 16 18 15 18 15
-3 4 -12 -5 -25 -15 -29 -22 -4 -6 -3 -8 3 -5 7 4 9 -5 8 -26 -2 -19 3 -39 13
-50 12 -13 13 -20 5 -25 -8 -5 -5 -12 10 -21 19 -12 20 -12 10 0 -7 9 -9 20
-3 29 6 9 4 20 -3 29 -10 12 -9 13 2 6 10 -6 12 -4 6 5 -6 9 -4 11 5 5 9 -5
11 -4 6 4 -4 6 -12 9 -17 6 -12 -8 -11 2 1 26 11 20 30 26 30 8 0 -5 -4 -7
-10 -4 -5 3 -10 1 -10 -4 0 -6 3 -11 8 -11 4 0 8 -20 9 -45 0 -27 -3 -45 -10
-45 -7 0 -7 -4 1 -12 17 -17 15 -31 -4 -24 -10 4 -13 2 -8 -6 4 -6 3 -8 -3 -5
-13 8 -51 -43 -47 -65 1 -10 -3 -15 -11 -12 -7 3 -16 1 -20 -5 -3 -7 0 -8 9
-5 18 7 22 -11 4 -22 -7 -5 -8 -3 -3 7 7 11 5 11 -10 -1 -10 -8 -16 -10 -12
-3 4 6 3 15 -3 18 -7 4 -7 11 -2 18 13 17 11 47 -2 40 -6 -4 -2 4 9 18 19 22
19 23 1 9 -12 -9 -17 -10 -12 -2 11 19 1 14 -20 -9 -10 -11 -14 -20 -9 -19 21
5 29 -1 16 -9 -12 -8 -12 -13 2 -35 10 -14 13 -27 7 -31 -5 -3 -7 -13 -4 -23
5 -14 4 -15 -5 -2 -9 13 -11 12 -8 -5 4 -27 17 -46 27 -40 5 3 7 16 4 30 -2
13 0 26 5 29 5 3 8 -10 6 -29 -1 -21 2 -32 8 -28 6 4 7 1 2 -8 -7 -11 -5 -11
10 1 10 8 16 10 13 5 -10 -17 29 -16 43 1 6 8 15 14 19 14 11 0 7 -74 -5 -82
-6 -5 -4 -12 5 -18 13 -9 13 -10 0 -10 -13 0 -13 -2 0 -11 13 -9 12 -10 -2 -5
-10 3 -18 1 -18 -4 0 -6 6 -10 13 -10 7 0 13 -9 14 -20 2 -22 -12 -27 -23 -8
-5 7 -3 8 7 3 12 -8 12 -6 0 8 -15 18 -26 23 -16 7 4 -6 -1 -7 -12 -4 -14 4
-15 3 -4 -4 7 -5 9 -12 4 -15 -5 -3 -15 3 -22 15 -9 15 -10 18 0 13 8 -5 10
-4 5 3 -5 8 -2 10 8 6 9 -3 16 -1 16 6 0 6 -4 9 -9 5 -5 -3 -13 0 -17 6 -5 8
-3 9 7 4 12 -8 12 -6 0 8 -10 12 -10 21 -3 30 9 10 4 13 -23 13 -18 0 -31 -4
-29 -8 3 -4 -1 -5 -9 -2 -8 3 -18 1 -22 -5 -4 -7 0 -8 10 -5 21 8 17 -25 -5
-44 -8 -8 -10 -11 -4 -8 6 3 11 0 11 -7 0 -7 -8 -13 -17 -13 -12 0 -15 7 -12
23 2 13 8 21 12 18 4 -3 10 2 13 9 4 10 0 14 -12 11 -12 -2 -17 3 -17 20 0 13
4 21 8 19 10 -6 11 10 1 20 -9 9 -10 267 0 273 4 2 7 9 7 14 0 6 -4 8 -9 5 -5
-4 -8 2 -6 11 1 10 -3 24 -9 32 -8 11 -8 13 0 8 14 -8 13 151 -1 172 -5 10 -4
12 3 7 7 -4 12 -2 12 4 0 6 4 9 9 5 5 -3 12 -1 16 4 3 6 12 8 19 5 8 -3 17 0
21 6 5 8 11 8 21 -1 8 -6 14 -7 14 -2 0 6 14 9 30 7 18 -2 30 1 30 8 0 6 3 8
7 5 4 -4 2 -12 -5 -19z m-122 -38 c0 -5 -2 -10 -4 -10 -3 0 -8 5 -11 10 -3 6
-1 10 4 10 6 0 11 -4 11 -10z m-3 -165 c0 -8 -4 -12 -9 -9 -4 3 -8 9 -8 15 0
5 4 9 8 9 5 0 9 -7 9 -15z m83 6 c0 -6 -4 -12 -8 -15 -5 -3 -9 1 -9 9 0 8 4
15 9 15 4 0 8 -4 8 -9z m-3 -38 c-4 -3 -1 -13 6 -22 11 -14 10 -14 -5 -2 -21
15 -23 31 -6 31 6 0 8 -3 5 -7z m27 -130 c-3 9 -2 17 3 17 4 0 9 -13 9 -30 1
-16 -3 -30 -8 -30 -5 0 -7 4 -4 9 3 5 -2 15 -11 22 -14 12 -16 12 -8 0 6 -10
4 -12 -5 -6 -7 5 -5 -3 6 -17 10 -14 24 -23 29 -20 6 3 4 -2 -4 -11 -11 -14
-11 -17 0 -17 11 0 11 -2 -1 -10 -13 -9 -13 -10 0 -10 13 0 13 -1 0 -10 -12
-8 -12 -10 -1 -10 8 0 2 -10 -14 -21 -20 -16 -29 -19 -34 -10 -4 7 -12 11 -17
9 -5 -2 -9 2 -9 7 0 6 3 9 7 8 4 -2 5 4 2 12 -4 8 -11 12 -18 8 -6 -3 -2 3 8
15 11 12 20 32 21 44 0 13 7 33 15 45 13 20 15 20 27 5 12 -16 13 -16 7 1z
m-104 -33 c0 -5 -5 -10 -11 -10 -5 0 -7 5 -4 10 3 6 8 10 11 10 2 0 4 -4 4
-10z m-3 -105 c0 -8 -4 -12 -9 -9 -5 3 -6 10 -3 15 9 13 12 11 12 -6z m48
-108 c-1 -28 -25 -54 -25 -27 0 6 4 9 8 6 5 -3 9 2 9 10 0 13 -2 13 -16 -1
-15 -15 -14 -18 9 -35 14 -11 21 -20 15 -20 -5 0 -3 -4 5 -10 8 -5 19 -5 25 0
6 5 18 2 29 -6 12 -8 15 -14 7 -14 -10 0 -11 -3 -2 -13 6 -8 7 -17 3 -21 -11
-11 -9 -50 3 -58 7 -5 6 -8 -1 -8 -11 0 -11 -40 0 -59 4 -5 3 -12 -1 -14 -5
-3 -8 -52 -8 -110 0 -58 -3 -103 -7 -101 -4 2 -9 0 -13 -6 -3 -5 -2 -10 3 -10
4 0 8 -15 8 -34 0 -19 -4 -32 -8 -30 -5 3 -8 0 -8 -5 0 -6 -5 -11 -11 -11 -5
0 -8 4 -5 9 3 4 -2 17 -10 27 -9 10 -12 13 -8 5 5 -10 3 -12 -6 -6 -9 6 -11 4
-5 -5 6 -9 4 -11 -5 -5 -8 5 -11 4 -6 -3 4 -6 14 -8 23 -5 10 4 14 2 9 -5 -3
-6 2 -15 11 -21 17 -10 17 -10 -2 -12 -11 -1 -27 -2 -35 -3 -8 0 -15 -7 -15
-13 0 -20 -18 -20 -21 -1 -1 9 4 22 12 29 18 14 18 33 1 26 -7 -3 -13 3 -13
13 0 10 4 17 7 14 4 -2 10 0 13 5 4 5 3 12 -2 15 -4 2 -7 35 -7 71 1 59 -1 68
-20 77 -20 9 -21 17 -20 156 0 119 3 147 14 147 13 0 20 17 23 53 1 6 5 12 10
12 4 0 7 3 7 8 -2 14 1 19 14 19 8 0 12 -12 12 -30z m27 -656 c7 -1 5 -33 -3
-51 -6 -15 -3 -57 5 -67 8 -13 7 -14 -16 -17 -18 -1 -18 -83 -1 -98 16 -13 47
8 39 28 -3 8 0 11 9 7 8 -3 12 -9 9 -14 -3 -5 -1 -9 5 -9 14 0 7 -33 -9 -38
-10 -4 -9 -6 1 -13 10 -6 7 -8 -10 -6 -13 2 -29 11 -35 19 -10 13 -15 14 -29
3 -14 -10 -15 -14 -5 -18 7 -2 -4 -4 -25 -2 -20 1 -40 5 -45 9 -4 4 -2 7 3 6
27 -6 37 0 26 14 -8 10 -8 16 2 25 11 8 17 66 7 66 -1 0 -3 10 -4 22 -1 12 1
20 6 17 13 -8 28 6 22 21 -4 8 -9 13 -13 11 -9 -6 -7 66 2 81 5 7 18 11 30 9
12 -3 25 -5 29 -5z"/>
<path d="M2556 1871 c-4 -5 -2 -12 3 -15 5 -4 12 -2 15 3 4 5 2 12 -3 15 -5 4
-12 2 -15 -3z"/>
<path d="M2499 1829 c-4 -14 -4 -127 1 -123 3 3 5 21 5 39 1 18 6 39 13 48 10
11 9 17 -3 27 -8 7 -15 11 -16 9z m16 -18 c3 -5 2 -12 -3 -15 -5 -3 -9 1 -9 9
0 17 3 19 12 6z"/>
<path d="M2562 1787 c-15 -15 -18 -27 -12 -37 8 -13 11 -13 22 -1 11 11 11 13
-1 6 -10 -6 -12 -4 -7 4 6 9 12 9 24 -1 10 -7 19 -14 22 -16 3 -2 -2 -3 -10
-1 -29 6 -57 -18 -55 -48 3 -41 -13 -58 -36 -37 -15 14 -17 14 -15 0 1 -8 10
-23 19 -34 20 -22 23 -39 4 -23 -18 14 -30 2 -16 -16 6 -7 7 -13 2 -13 -5 0
-9 -11 -9 -25 0 -23 1 -24 19 -7 11 9 20 17 21 16 0 0 11 -6 24 -13 12 -6 22
-17 22 -24 0 -8 -3 -8 -9 2 -12 19 -31 5 -26 -21 3 -12 -1 -28 -8 -36 -10 -13
-9 -14 10 -1 12 7 20 15 18 18 -3 2 9 21 26 42 30 38 30 38 9 49 -16 9 -19 15
-11 24 8 10 7 17 -4 26 -9 7 -13 23 -11 37 3 15 -1 26 -10 30 -11 4 -7 11 17
29 18 13 37 20 42 17 6 -3 3 4 -6 17 -15 22 -15 25 1 44 13 15 13 18 1 9 -10
-8 -19 -9 -25 -3 -7 7 -18 3 -32 -13z m34 -13 c2 -11 -1 -12 -10 -5 -9 7 -17
7 -26 -2 -8 -6 -6 -2 4 11 20 23 28 22 32 -4z m-16 -49 c-7 -8 -17 -15 -23
-15 -6 0 -2 7 9 15 25 19 30 19 14 0z m-18 -73 c-9 -7 -8 -13 8 -27 15 -14 17
-21 9 -31 -8 -10 -7 -17 4 -28 8 -8 18 -12 23 -8 5 4 2 -1 -5 -10 -11 -15 -15
-16 -35 -3 -13 8 -26 12 -31 8 -4 -5 -5 1 -1 12 5 16 3 16 -15 -5 -16 -20 -18
-21 -10 -4 7 15 7 25 -2 34 -10 12 -9 12 5 2 28 -22 33 6 7 36 -13 14 -17 21
-8 14 13 -10 19 -9 29 3 7 8 18 15 24 15 7 0 6 -3 -2 -8z m3 -141 c3 -5 2 -12
-3 -15 -5 -3 -9 1 -9 9 0 17 3 19 12 6z"/>
<path d="M2536 1631 c-4 -5 -1 -13 5 -16 5 -4 8 -13 6 -19 -6 -15 1 -26 28
-45 17 -13 17 -11 -2 9 -19 21 -20 25 -7 35 13 9 13 13 -4 29 -12 10 -22 13
-26 7z m25 -18 c13 -16 12 -17 -3 -4 -17 13 -22 21 -14 21 2 0 10 -8 17 -17z"/>
<path d="M2626 1593 c-6 -14 -5 -15 5 -6 7 7 10 15 7 18 -3 3 -9 -2 -12 -12z"/>
<path d="M2494 1435 c0 -19 3 -22 13 -13 10 8 10 14 2 24 -15 18 -15 18 -15
-11z"/>
<path d="M2494 1358 c1 -7 5 -19 10 -26 4 -7 2 -20 -6 -29 -12 -15 -11 -15 12
-1 14 8 40 14 58 13 46 -3 46 -3 32 -20 -10 -12 -10 -18 0 -30 20 -24 23 -17
33 63 4 30 3 32 -12 19 -17 -15 -57 -17 -78 -4 -7 5 -13 5 -13 1 0 -4 -9 1
-19 10 -14 12 -19 14 -17 4z m38 -23 c3 0 9 -3 13 -7 4 -3 0 -5 -9 -4 -9 1
-22 8 -29 16 -10 10 -9 11 3 4 8 -5 18 -9 22 -9z m95 -10 c0 -8 -4 -15 -9 -15
-10 0 -11 14 -1 23 9 10 10 9 10 -8z m-11 -45 c0 -12 -4 -16 -9 -11 -5 5 -6
14 -3 20 10 15 12 14 12 -9z"/>
<path d="M2597 1463 c9 -3 7 -11 -7 -26 -19 -20 -19 -22 -2 -40 9 -10 16 -21
15 -23 -8 -12 -1 -15 10 -6 25 21 11 103 -16 101 -9 0 -9 -2 0 -6z m18 -47 c0
-19 -5 -39 -9 -43 -5 -4 -6 -3 -3 3 4 7 0 17 -8 24 -14 11 -14 15 1 31 10 11
18 19 19 19 1 0 1 -15 0 -34z"/>
<path d="M2595 1421 c-3 -5 -2 -12 3 -15 5 -3 9 1 9 9 0 17 -3 19 -12 6z"/>
<path d="M2534 1215 c1 -8 5 -18 9 -21 16 -17 5 -23 -15 -10 l-23 15 0 -138
c0 -116 2 -138 14 -133 8 3 12 1 8 -5 -4 -6 -1 -16 7 -22 7 -6 12 -27 11 -50
-1 -32 1 -38 14 -33 14 5 14 4 1 -12 -18 -22 -21 -44 -9 -52 6 -3 5 -12 -3
-22 -10 -13 -8 -13 9 1 20 18 21 18 36 -3 11 -16 16 -18 20 -6 3 8 3 17 -1 20
-12 12 -10 35 4 47 11 9 11 15 3 25 -6 8 -7 14 -2 14 5 0 9 36 8 81 -1 44 3
83 7 85 4 3 3 14 -2 25 -6 10 -8 19 -4 19 3 0 1 7 -6 15 -7 8 -8 15 -2 15 5 0
8 14 7 30 -1 17 2 33 7 36 5 4 5 10 -1 17 -5 7 -10 15 -10 20 -1 7 -5 8 -16 6
-3 -1 -11 -2 -17 -3 -7 -1 -12 -7 -10 -14 2 -13 -10 -16 -21 -5 -4 3 -2 12 4
20 9 10 8 13 -2 13 -11 0 -11 2 -2 8 9 6 7 11 -6 19 -15 10 -19 9 -17 -2z m16
-60 c29 -31 40 -32 35 -4 -3 12 -2 19 2 15 3 -3 13 0 21 7 11 8 14 8 9 0 -4
-6 -3 -15 3 -18 7 -4 7 -12 2 -18 -4 -7 -8 -19 -7 -27 1 -8 -2 -23 -7 -32 -4
-9 -4 -19 1 -23 6 -3 8 -14 6 -25 -2 -11 1 -20 7 -20 7 0 7 -4 1 -12 -5 -7 -9
-42 -8 -78 1 -36 -2 -73 -7 -82 -5 -10 -4 -19 3 -23 7 -5 6 -12 -3 -23 -16
-19 -17 -30 -4 -52 7 -11 5 -11 -10 2 -10 9 -23 17 -29 17 -15 1 -13 24 3 43
13 16 13 18 -2 24 -14 5 -15 9 -4 15 10 7 10 9 -1 9 -11 0 -9 4 5 15 12 10 14
14 4 12 -8 -2 -11 -2 -7 1 5 2 -1 11 -12 19 -12 8 -19 18 -16 23 3 5 -3 13
-12 19 -13 8 -14 10 -3 11 11 0 11 3 2 12 -18 18 -15 31 6 24 14 -5 14 -4 -2
9 -12 9 -15 15 -7 15 11 0 11 3 0 17 -12 14 -12 17 0 21 11 4 11 6 0 13 -10 6
-11 9 -1 9 6 0 12 5 12 11 0 5 -4 8 -8 5 -10 -6 -9 54 1 71 4 6 1 14 -5 16 -7
3 -8 6 -2 6 6 1 21 -10 34 -24z"/>
<path d="M2529 1157 c-6 -32 -3 -55 9 -69 11 -13 12 -18 3 -18 -7 0 -10 -4 -6
-9 3 -5 1 -13 -5 -16 -8 -5 -7 -11 1 -21 6 -8 8 -14 4 -14 -4 0 -2 -7 5 -15
12 -14 7 -20 -14 -16 -5 1 -4 -5 4 -13 7 -9 9 -16 5 -16 -4 0 -2 -6 4 -13 6
-8 8 -17 5 -20 -4 -3 5 -12 20 -18 27 -12 31 -20 19 -33 -11 -11 -12 -35 -2
-42 6 -3 5 -12 -3 -21 -17 -21 -18 -40 -2 -40 7 0 11 4 9 8 -3 3 2 12 10 19 8
7 12 17 8 24 -12 19 -12 36 0 36 7 0 5 5 -3 10 -8 5 -10 10 -5 10 6 0 11 20
11 44 0 25 -4 42 -8 40 -4 -3 -8 0 -8 5 0 6 5 11 11 11 6 0 3 8 -8 18 -10 9
-14 14 -9 10 19 -15 24 -8 21 25 -2 17 -4 32 -5 32 -1 0 -3 8 -5 18 -2 9 2 17
8 17 7 0 5 5 -3 10 -12 8 -12 10 -1 10 8 0 11 3 8 7 -4 3 -2 12 4 19 7 8 7 14
-1 19 -5 3 -11 4 -11 1 -1 -3 -3 -10 -4 -16 -1 -5 -3 -15 -4 -22 0 -6 -14 1
-31 17 -16 16 -31 26 -31 22z m56 -75 c-1 -10 0 -21 3 -27 11 -18 10 -57 -1
-46 -5 5 -16 7 -24 4 -11 -4 -9 -9 7 -20 23 -16 18 -35 -8 -27 -9 3 -6 -1 8
-9 14 -9 25 -25 25 -39 2 -22 -1 -23 -21 -14 -12 6 -20 14 -17 18 2 5 8 6 13
3 5 -3 11 -1 14 4 3 4 -4 8 -16 7 -25 -1 -34 32 -11 41 13 5 13 7 -1 15 -9 5
-14 13 -11 18 3 5 1 11 -5 15 -7 4 -5 14 5 27 11 17 12 25 3 36 -7 8 -13 25
-14 39 l-1 24 28 -26 c15 -15 26 -34 24 -43z m15 -276 c0 -2 -8 -10 -17 -17
-16 -13 -17 -12 -4 4 13 16 21 21 21 13z"/>
<path d="M2544 1118 c1 -7 6 -20 11 -28 14 -22 13 -33 -5 -47 -16 -13 -15 -14
16 -18 21 -2 25 9 13 30 -4 6 -5 18 -4 27 2 9 -5 24 -15 33 -13 12 -18 13 -16
3z m31 -78 c-3 -5 -12 -10 -18 -10 -7 0 -6 4 3 10 19 12 23 12 15 0z"/>
<path d="M2539 673 c-13 -16 -12 -17 3 -5 9 8 23 10 29 6 8 -4 9 -3 5 4 -10
17 -21 15 -37 -5z"/>
<path d="M2549 607 c-7 -23 -5 -39 7 -44 8 -3 11 -9 8 -14 -3 -5 -11 -6 -17
-3 -7 4 -8 3 -4 -2 5 -5 14 -9 20 -9 5 0 12 -6 15 -14 3 -9 0 -11 -8 -6 -8 5
-11 4 -7 -2 4 -6 -2 -18 -13 -28 -11 -10 -16 -23 -12 -29 11 -18 9 -50 -6 -68
-9 -11 -10 -18 -2 -23 5 -3 7 -11 4 -17 -4 -5 6 -2 21 8 25 17 26 19 9 31 -13
10 -14 13 -3 13 12 0 12 2 0 9 -11 7 -11 9 0 14 12 5 12 6 0 6 -11 1 -11 4 -1
16 7 8 9 15 5 15 -4 0 -2 7 5 15 7 8 17 12 23 8 6 -4 7 -1 1 8 -10 17 -13 60
-4 74 12 20 5 38 -17 41 -13 2 -23 3 -24 1z m37 -24 c-1 -8 -5 -13 -9 -13 -29
1 -31 2 -18 7 11 5 11 7 0 14 -10 6 -8 8 7 7 12 -1 21 -8 20 -15z m-19 -101
c-10 -10 -14 -22 -10 -27 5 -4 2 -5 -5 -1 -11 6 -10 12 4 27 9 10 19 19 22 19
3 0 -2 -8 -11 -18z m-8 -113 c-15 -9 -32 -2 -24 11 3 5 13 6 21 3 12 -4 13 -8
3 -14z"/>
<path d="M2616 371 c-21 -23 -8 -34 19 -15 10 8 13 14 6 14 -7 0 -9 5 -6 10
10 16 -1 11 -19 -9z"/>
<path d="M2506 807 c3 -10 9 -15 12 -12 3 3 0 11 -7 18 -10 9 -11 8 -5 -6z"/>
<path d="M2504 435 c0 -13 3 -22 7 -19 8 4 6 30 -2 38 -3 3 -5 -5 -5 -19z"/>
<path d="M2615 450 c-4 -6 -11 -8 -16 -5 -5 4 -9 1 -9 -4 0 -14 17 -14 25 -1
5 8 12 7 23 -2 15 -12 16 -11 3 5 -16 20 -18 20 -26 7z"/>
<path d="M2593 405 c0 -8 4 -15 9 -15 4 0 8 4 8 9 0 6 -4 12 -8 15 -5 3 -9 -1
-9 -9z"/>
<path d="M2674 365 c-1 -28 2 -32 25 -32 23 0 23 1 7 13 -10 7 -15 17 -12 22
3 5 0 14 -7 20 -9 8 -12 2 -13 -23z"/>
<path d="M2449 363 c-13 -16 -12 -17 4 -4 16 13 21 21 13 21 -2 0 -10 -8 -17
-17z"/>
</g>
</svg>
